<?xml version="1.0"?>
<svg xmlns="http://www.w3.org/2000/svg" height="512px" viewBox="1 0 511.99902 511" width="512px" class=""><g><path d="m0 136.195312 90.273438 48.253907v95.863281l165.726562 82.3125 165.726562-82.3125v-95.863281l29.949219-16.007813v201.210938l-29.949219 29.949218v112.027344h89.851563v-112.027344l-29.953125-29.949218v-217.222656l30.375-16.234376-256-135.695312zm481.625 345.484376h-29.949219v-69.671876l14.976563-14.972656 14.972656 14.972656zm-361.402344-281.222657 120.800782 64.570313v56.71875l-120.800782-60zm271.550782 61.289063-120.796876 60v-56.71875l120.796876-64.570313zm-135.773438-22.671875-192.257812-102.765625 192.257812-101.910156 192.257812 101.910156zm0 0" data-original="#000000" class="active-path" data-old_color="#f30067" fill="#f30067"/><path d="m196.097656 136.25c0 25.195312 26.3125 44.925781 59.902344 44.925781s59.902344-19.730469 59.902344-44.925781c0-25.191406-26.3125-44.921875-59.902344-44.921875s-59.902344 19.730469-59.902344 44.921875zm89.851563 0c0 6.109375-11.667969 14.976562-29.949219 14.976562-18.285156 0-29.949219-8.867187-29.949219-14.976562 0-6.105469 11.664063-14.972656 29.949219-14.972656 18.28125 0 29.949219 8.867187 29.949219 14.972656zm0 0" data-original="#000000" class="active-path" data-old_color="#f30067" fill="#f30067"/></g> </svg>
